<?xml version="1.0" encoding="UTF-8" standalone="no"?>
<!-- Generator: Adobe Illustrator 28.1.0, SVG Export Plug-In . SVG Version: 6.00 Build 0)  -->

<svg
   version="1.1"
   id="Layer_1"
   x="0px"
   y="0px"
   viewBox="0 0 595.3 841.9"
   style="enable-background:new 0 0 595.3 841.9;"
   xml:space="preserve"
   sodipodi:docname="Carte_TJ_VdefV3.svg"
   inkscape:version="1.1.1 (3bf5ae0d25, 2021-09-20)"
   xmlns:inkscape="http://www.inkscape.org/namespaces/inkscape"
   xmlns:sodipodi="http://sodipodi.sourceforge.net/DTD/sodipodi-0.dtd"
   xmlns="http://www.w3.org/2000/svg"
   xmlns:svg="http://www.w3.org/2000/svg"><defs
   id="defs275" />
<style
   type="text/css"
   id="style2">
	.st0{fill:#10624D;}
	.st1{fill:#FFFFFF;}
	.st2{fill:#0C604A;}
	.st3{fill:#0A5E48;}
	.st4{fill:#095E47;}
	.st5{fill:#085D47;}
	.st6{fill:#FEFEFE;}
	.st7{fill:#FDFEFE;}
	.st8{fill:#FDFEFD;}
	.st9{fill:#FDFDFD;}
	.st10{fill:#FCFDFD;}
	.st11{fill:#FBFCFC;}
	.st12{fill:#F5F8F7;}
	.st13{display:none;}
	.st14{display:inline;fill:#FCFDFD;}
	.st15{display:inline;fill:#F5F8F7;}
</style>
<sodipodi:namedview
   bordercolor="#666666"
   borderopacity="1.0"
   id="namedview252"
   inkscape:current-layer="Layer_1"
   inkscape:cx="14.25016"
   inkscape:cy="264.23178"
   inkscape:pagecheckerboard="0"
   inkscape:pageopacity="0.0"
   inkscape:pageshadow="2"
   inkscape:window-height="986"
   inkscape:window-maximized="1"
   inkscape:window-width="1920"
   inkscape:window-x="-11"
   inkscape:window-y="-11"
   inkscape:zoom="2.0701522"
   pagecolor="#ffffff"
   showgrid="false">
	</sodipodi:namedview>
<path
   id="Metz"
   class="st7"
   d="M535.2,300.3c-0.2-3.8-0.2-3.6-3.8-4.4c-1.4-0.3-2.7-1.3-4-1.9c-1.1-0.5-2.2-1.1-3.8-1.9  c-0.4-0.8-0.5-2.2,0.2-3.7c0.5-1.3,0.5-2.9,0.9-4.3c0.3-1.5,2.9-3.2,4.3-3c1.2,0.2,2.5,0.4,3.7,0.5c2.1,0.2,3.1-0.5,3.8-2.6  c0.2-0.6,0.8-1.2,1.4-1.6c0.9-0.7,2-1.3,3.1-2.1c-0.2,0-0.1,0,0,0c1.5,2.2,2.9,4.3,4.3,6.5c0.4,0.6,0.5,1.2-0.2,2  c-0.6,0.6-0.9,1.8-0.7,2.6c0.6,2.8,0,4.9-2.4,6.6c-1.6,1.1-1.5,1.2,0,2.5c0.4,0.3,0.8,0.7,1.2,1c1.4,1.2,3.2,1.1,4.4-0.4  c0.9-1.2,2.1-1.7,3.5-1.5c1.3,0.1,2.5,0.3,3.8,0.4c0.1,0.2,0.2,0.5,0.1,0.7c-0.3,1.6,0.3,2.5,1.9,2.7c0.3,0.1,0.8,0.6,0.8,0.8  c-0.1,1.5,0.7,2.4,2,2.5c0.7,0,1.5-0.9,2.2-1.4c-0.1-0.1-0.1-0.3-0.2-0.4c0.5,0.3,1,0.6,1.6,0.9c2.4,1.5,2.4,1.5,1.6,4.2  c-0.2,0.6-0.2,1.6,0.1,1.9c1.6,1.5,0.5,2.9-0.3,3.8c-1,1.2-2.5,2-3.8,2.9c-0.3,0.2-1-0.1-1.4-0.4s-0.6-0.8-0.9-1.2  c-0.9-1.4-2-2.3-3.8-2.3c-3-0.1-5.2-2.1-7.8-3.1c-2.3-0.8-4.4-1.8-6.6-2.8C538.5,303,536.4,302.4,535.2,300.3z" />

<g
   class="st13"
   id="g266">
	<path
   id="path209"
   class="st14"
   d="M16.1,282.1c-0.7-0.3-1.2-0.5-1.8-0.7c0.4-1,0.8-1.9,1.2-3c-0.6-0.2-1.1-0.3-1.9-0.5   c0.8-0.6,1.3-1.4,1.9-1.5c1.3-0.3,1.9-1.1,2.3-2.1c0.3-0.7,0.8-1.4,1.3-2.1c1.6,1.2,3.1,2.3,4.6,3.5c0.4,0.3,0.7,1,0.8,1.5   c0.3,2.6,2.6,3.8,4.8,2.4c1-0.6,1.9-0.7,3-0.3c1.6,0.6,3.3,1,4.8,1.7c1.7,0.7,2.5,2.8,1.9,4.5c-0.1,0.4-0.7,0.8-1.1,0.8   c-1.5,0.3-2.4,1.3-3,2.5c0,0.1-0.1,0.2-0.1,0.3c-2.2,4.9-2.2,4.9,1.9,8.2c-1.3,1.4-3.7,2.2-1.9,5.1c-2.7-0.3-4,1.1-4.4,3.1   c-0.4,2.5,1.4,3.5,3.6,4c-0.1,0.2-0.1,0.4-0.2,0.6c-0.9-0.1-1.8,0-2.6-0.2c-2.2-0.7-2.2-0.7-3.1,1.4c-0.1,0.1-0.2,0.2-0.4,0.6   c-0.6-0.2-1.3-0.4-1.8-0.7c-1.1-0.8-2.1-1.7-3.5,0c0.5-3.3,0.5-3.3-3.5-3.4c0.8-0.5,1.2-0.7,1.6-1c1.1-0.9,1-1.7-0.1-2.5   c-0.6-0.4-0.9-1.2-1.3-1.8c-0.4-0.5-0.8-1.1-1.2-1.6c1.7-0.8,2.1-0.8,2.9,0.8c1,1.8,2.4,3,4.5,3.1s2.8-0.9,2.1-2.8   c-1-2.6-2.9-4.6-5.1-6.3c-0.5-0.4-1.1-0.9-1.8-1.4c1.2-1.1,1-2.4,0.8-3.8c-0.2-1.8,0-3.7,0.2-5.6c0.1-0.9-0.2-1.1-0.9-1.3   C19.3,283.1,17.7,282.6,16.1,282.1z" />
	<path
   id="path249"
   class="st15"
   d="M45,284.3c0.3-0.2,0.6-0.3,0.6-0.3c0.3,0.7,0.7,1.3,1,2c0.5,1.2-0.6,1.1-1.1,1.5   c-0.2,0.2-0.4,0.5-0.6,0.7C44.1,287.2,44.2,285.2,45,284.3z" />
	<polygon
   class="st14"
   points="12.7,284.3 11.4,284.3 11.4,285 11.8,285.6 12.7,285  "
   id="polygon264" />
</g>
<path
   id="Angers"
   class="st6"
   d="M284.7,347.3c8.2,1.7,7.2,4,7.2,4  c0,0.2,0.4,1.3,0.6,1.9c0.1,0.4,0.6,1,1,2.6c0.6,0.9,0.8,2.1,1.5,3.2c0.5,1.6,1.4,2.5,3,4.5c1.2,0.9,2.3,3.3,2.6,3.9  c-6.4,0.8-12,1.6-12.8,3.1c-1,1.2,2,3.2,2.6,5.7c1.4,1.9,2.3,6.6,2.4,8c-0.2,0.6-1.9-1.4-5.8-0.9c-2.3,0.2-4.5,2.4-5.1,3.4  c-0.4,0-2,2.9-2.5,3.9c-6.2,0-9.9-4.6-10.9-5.7c-0.1-0.2,1.7-1.9,1.9-2.1c-0.3-3.8-0.2-7-0.1-9.2c0.1-0.8,0.4-2.8,0.4-2.8  c1.8-0.6,1.4-0.9,4.5-1.4c1.1-0.4,1.6-0.4,1.7-2.6c0-1.1,0.1-1.9,0.1-3c-0.2-1.9-0.3-2.5-0.9-5.3c0.2-2,0.3-4.3,0.5-5.9  C280.1,348.5,283.1,346.8,284.7,347.3z" />
<path
   class="st1"
   d="M291.9,454c-0.7,0.7-1.6,1.5-2.1,2.6c-2.1,13-3.6,24.4-5.7,37.3l3.1-4.3l4.2,5.7c0.4,0.6,0.7,0.9,0.3,1.4  l-5.7,0.1l-1.8,3.6c-0.8,1.1-0.9,3.6-0.6,3.6l5.5-0.6c0.8-0.2,1.7,0,2.5,0.4l2.1,1.2c0.6,0.4,2,0.8,2.1,0.8l2.1,0.3  c0.1,0,0.3,0,0.5,0l2.8-0.2c0.5,0,2.6,0.5,3,0.7l1.5,1.3l6.3,6.8c0.6,0.6,1.7,1.5,2.6,1.7l4.1,0.3c0.9,0.1,1.8-0.3,2.3-1.1l1.8-2.7  l1.4-2.4c0.1-0.3,0.9-2.7,0.9-3l0.4-2.4c0-0.6,0.5-2,0.9-2.4l2.3-2c0.1-0.1,1.1-1,1.2-1.2l0.7-1.7c0.1-0.2,1.1-3,1.2-3.2l0.8-0.8  c0.3-0.3,0.1-0.8-0.3-0.8l-3.7-0.8l-8.3-0.1c-0.3,0-3.8,0.1-4-1.2l-0.6-1c-0.2-0.3-1.5-3-1.5-3.4c-0.2-1-0.2-2.6-0.1-2.8l0.5-4.2  l-5.9-0.2c-0.3,0-2.3-0.2-3.9-2.4L303,475c-0.3-0.4-0.5-2.1-0.6-2.6c-0.7-2.7-1.2-5.6-2.6-8c-1.7-3.1-3.9-4.8-6.6-7.2  c-0.4-0.4-1.1-1.4-1.2-2.5L291.9,454z"
   id="Bordeaux" />
<path
   id="PATH_23"
   class="st3"
   d="M22.2,312c-1.5-0.9-0.4-2.1-0.5-3.3  c-0.9,0-1.7,0.1-2.6,0c-0.4,0-1-0.3-1-0.6c0-0.5,0.1-1.1,0.4-1.4c0.5-0.5,1.2-0.9,1.5-1.1c-1.2-1.9-2.4-3.7-3.6-5.7  c0.9-0.3,1.3-0.4,1.7-0.5c2.4-0.8,3,0.2,3.9,1.7c1.2,2,2.4,2.6,4.9,2.3c-0.8-4.4-4.6-6.3-7.5-9.2c1.8-1.1,1.3-2.7,1.1-4.4  c-0.2-1.7,0-3.4,0-5.2c-2.2-0.8-4.7-1.6-7.3-2.4c0.3-1,0.5-1.8,0.8-2.7c-0.2,0-0.3,0-0.5,0.1c-0.1-0.6-0.5-1.3-0.4-1.8  c0.2-0.7,0.7-1.7,1.3-1.9c2.3-0.6,2.8-2.8,4.1-4.3c1-1.2,2.1-2.4,4-2.2c0.5,1.4,0.3,2.3-1.1,2.8c1,0.8,2,1.6,3,2.4  c0.8,0.7,1.4,1.4,1.5,2.7c0,1.3,1.7,2.4,2.6,1.7c3-2.2,5.6-0.4,8.2,0.6c3.4,1.2,3.8,2.2,3.7,5.9c0,1.1-0.6,1.8-1.7,1.9  c-1.2,0.2-2,0.8-2.4,2c-0.2,0.6-0.6,1.2-0.9,1.8c-1.1,2.3-0.9,3.1,1.2,4.5c2.2,1.5,2.2,1.9,0.1,3.5c-0.9,0.6-1.6,1.4-0.8,2.6  c0.2,0.3,0.3,0.8,0.5,1.5c-0.7,0.1-1.3,0.2-1.9,0.2c-2,0-3.3,2.1-2.3,3.7c0.4,0.6,1.4,0.8,2.1,1.3c0.5,0.3,1.2,0.8,1.1,1.2  c0,0.5-0.7,1.2-1.1,1.3c-1.4,0.1-2.8,0-4.4-0.1c-1.7,2.6-1.7,2.6-5.5,0.3C23.5,311.4,22.9,311.7,22.2,312 M16.2,282.2  c1.5,0.5,3.1,1,4.6,1.4c0.8,0.2,1,0.5,0.9,1.3c-0.2,1.9-0.4,3.8-0.2,5.6c0.2,1.4,0.4,2.7-0.8,3.8c0.7,0.5,1.2,1,1.8,1.4  c2.1,1.8,4.1,3.7,5.1,6.3c0.7,1.9-0.1,2.9-2.1,2.8c-2.1-0.1-3.5-1.3-4.5-3.1c-0.9-1.6-1.3-1.7-2.9-0.8c0.4,0.5,0.8,1,1.2,1.6  c0.4,0.6,0.7,1.4,1.3,1.8c1.2,0.8,1.3,1.6,0.1,2.5c-0.4,0.3-0.9,0.5-1.6,1c4,0.1,4,0.1,3.5,3.4c1.4-1.7,2.4-0.8,3.5,0  c0.5,0.4,1.2,0.5,1.8,0.7c0.2-0.3,0.3-0.4,0.4-0.6c0.9-2.1,0.9-2,3.1-1.4c0.8,0.3,1.8,0.2,2.6,0.2c0.1-0.2,0.1-0.4,0.2-0.6  c-2.2-0.5-4-1.6-3.6-4c0.4-2.1,1.7-3.5,4.4-3.1c-1.8-2.8,0.7-3.7,1.9-5.1c-4.2-3.3-4.2-3.3-1.9-8.2c0-0.1,0.1-0.2,0.1-0.3  c0.6-1.3,1.5-2.2,3-2.5c0.4-0.1,0.9-0.5,1.1-0.8c0.6-1.7-0.2-3.7-1.9-4.5c-1.6-0.7-3.2-1.1-4.8-1.7c-1.1-0.4-1.9-0.3-3,0.3  c-2.2,1.4-4.5,0.2-4.8-2.4c-0.1-0.5-0.4-1.2-0.8-1.5c-1.4-1.2-2.9-2.3-4.6-3.5c-0.5,0.8-0.9,1.4-1.3,2.1c-0.5,1.1-1.1,1.8-2.3,2.1  c-0.7,0.2-1.2,0.9-1.9,1.5c0.8,0.2,1.3,0.3,1.9,0.5c-0.4,1.1-0.8,2-1.2,3C14.8,281.6,15.4,281.9,16.2,282.2z" />
<path
   class="st1"
   d="M19.3,272.2l-2.2,3.5l-3.3,2.2l1.9,0.5l-1.2,3l6.2,2.2c0.4,0.2,0.7,0.6,0.7,1l0,6c0,0.1,0.1,0.7,0.1,1.3  c0,0.4-0.1,0.8-0.2,1.2l-0.6,1.2c-0.2,0.7,2.8,1.7,4.3,3.8l1.9,2.5c1.6,2.9,1,3.6-1.1,3.5l-2.8-0.5c-0.3,0-0.6-0.2-0.7-0.4l-1.8-2.4  c-0.3-0.5-0.9-0.6-1.4-0.3l-0.9,0.5l2.8,4.1c0.3,0.4,0.2,1.1-0.2,1.4l-1.7,1.4L22,308c0.3,0.1,0.6,0.8,0.6,1.1l-0.1,2  c0,0.1,0.1,0.1,0.1,0.1l1.8-0.6c0.3-0.1,0.6-0.1,0.8,0.1l2.2,1.3c0.5,0.2,0.7-0.3,1-0.7l0.6-0.9c0.3-0.4,0.8-0.7,1.3-0.6l3.6,0.5  l0.2-0.6c-0.1-0.1-0.6-0.3-1.2-0.6c-1-0.5-1.9-1.1-2-2.2l0,0c-0.4-0.6,1-3.7,1.7-4l2.2-0.1c0.3-0.2,0-0.4-0.1-0.8l-0.2-1.3  c-0.1-0.4,0-0.7,0.3-1l1.8-2c0.1-0.1,0.1-0.3,0-0.4l-2.4-2.7c-0.6-0.6-0.7-1.5-0.3-2.3l2-4.3c0.1-0.3,0.3-0.5,0.6-0.7l1.5-0.8  c0.7-0.4,1.2-0.5,1.3-1.4l0-1.2c0-0.3,0-0.7-0.2-1c-0.3-0.6-0.8-1.5-1.9-1.8l-4.3-1.5c-0.3-0.1-1.6-0.5-1.9-0.4l-1.9,0.4  c-0.6,0.6-3.6-0.2-4.1-1l-0.4-2c-0.1-0.2-0.3-0.4-0.5-0.6L19.3,272.2z"
   id="Mamoudzou" />
</svg>
